<?xml version="1.0"?>
<svg xmlns="http://www.w3.org/2000/svg" height="512px" version="1.1" viewBox="-12 0 722 722.50215" width="512px">
<g id="surface1">
<path d="M 374.917969 148.980469 L 438.707031 148.980469 C 439.46875 123.804688 442.613281 98.757812 448.105469 74.175781 L 400.007812 74.175781 C 385.558594 96.636719 376.945312 122.34375 374.917969 148.980469 Z M 374.917969 148.980469 " style=" fill-rule:nonzero;fill-opacity:1;" stroke="#91DC5A" fill="#91DC5A"/>
<path d="M 523.902344 248.722656 L 523.902344 173.914062 L 463.65625 173.914062 C 464.496094 199.125 467.882812 224.191406 473.789062 248.722656 Z M 523.902344 248.722656 " style=" fill-rule:nonzero;fill-opacity:1;" stroke="#91DC5A" fill="#91DC5A"/>
<path d="M 523.902344 49.238281 L 523.902344 0 C 514.914062 0.703125 506.007812 2.140625 497.265625 4.332031 L 497.816406 4.589844 C 491.164062 19.089844 485.449219 34.007812 480.695312 49.238281 Z M 523.902344 49.238281 " style=" fill-rule:nonzero;fill-opacity:1;" stroke="#91DC5A" fill="#91DC5A"/>
<path d="M 448.105469 248.722656 C 442.613281 224.140625 439.46875 199.089844 438.707031 173.914062 L 374.917969 173.914062 C 376.945312 200.542969 385.558594 226.253906 400.007812 248.722656 Z M 448.105469 248.722656 " style=" fill-rule:nonzero;fill-opacity:1;" stroke="#91DC5A" fill="#91DC5A"/>
<path d="M 454.625 49.238281 C 457.945312 37.929688 461.695312 26.707031 466.035156 15.644531 C 448.71875 24.015625 433.023438 35.386719 419.6875 49.238281 Z M 454.625 49.238281 " style=" fill-rule:nonzero;fill-opacity:1;" stroke="#91DC5A" fill="#91DC5A"/>
<path d="M 463.65625 148.980469 L 523.902344 148.980469 L 523.902344 74.175781 L 473.789062 74.175781 C 467.882812 98.699219 464.496094 123.765625 463.65625 148.980469 Z M 463.65625 148.980469 " style=" fill-rule:nonzero;fill-opacity:1;" stroke="#91DC5A" fill="#91DC5A"/>
<path d="M 497.265625 318.535156 C 506.007812 320.730469 514.914062 322.183594 523.902344 322.890625 L 523.902344 273.65625 L 480.695312 273.65625 C 485.449219 288.886719 491.164062 303.800781 497.816406 318.300781 Z M 497.265625 318.535156 " style=" fill-rule:nonzero;fill-opacity:1;" stroke="#91DC5A" fill="#91DC5A"/>
<path d="M 454.625 273.65625 L 419.71875 273.65625 C 433.066406 287.5 448.757812 298.875 466.070312 307.246094 C 461.695312 296.183594 457.945312 284.964844 454.625 273.65625 Z M 454.625 273.65625 " style=" fill-rule:nonzero;fill-opacity:1;" stroke="#91DC5A" fill="#91DC5A"/>
<path d="M 619.898438 49.238281 L 653.039062 49.238281 C 640.269531 35.972656 625.335938 24.972656 608.878906 16.707031 C 613.058594 27.421875 616.695312 38.285156 619.898438 49.238281 Z M 619.898438 49.238281 " style=" fill-rule:nonzero;fill-opacity:1;" stroke="#91DC5A" fill="#91DC5A"/>
<path d="M 697.808594 173.914062 L 635.835938 173.914062 C 635.074219 199.089844 631.929688 224.140625 626.4375 248.722656 L 672.730469 248.722656 C 687.167969 226.253906 695.792969 200.542969 697.808594 173.914062 Z M 697.808594 173.914062 " style=" fill-rule:nonzero;fill-opacity:1;" stroke="#91DC5A" fill="#91DC5A"/>
<path d="M 619.898438 273.65625 C 616.683594 284.605469 613.042969 295.480469 608.878906 306.183594 C 625.339844 297.917969 640.273438 286.925781 653.054688 273.65625 Z M 619.898438 273.65625 " style=" fill-rule:nonzero;fill-opacity:1;" stroke="#91DC5A" fill="#91DC5A"/>
<path d="M 610.886719 173.914062 L 548.835938 173.914062 L 548.835938 248.722656 L 600.753906 248.722656 C 606.65625 224.191406 610.046875 199.125 610.886719 173.914062 Z M 610.886719 173.914062 " style=" fill-rule:nonzero;fill-opacity:1;" stroke="#91DC5A" fill="#91DC5A"/>
<path d="M 672.730469 74.175781 L 626.4375 74.175781 C 631.929688 98.757812 635.074219 123.804688 635.835938 148.980469 L 697.808594 148.980469 C 695.792969 122.34375 687.167969 96.636719 672.730469 74.175781 Z M 672.730469 74.175781 " style=" fill-rule:nonzero;fill-opacity:1;" stroke="#91DC5A" fill="#91DC5A"/>
<path d="M 593.84375 273.65625 L 548.835938 273.65625 L 548.835938 322.890625 C 558.261719 322.167969 567.597656 320.609375 576.746094 318.226562 C 583.390625 303.75 589.097656 288.863281 593.84375 273.65625 Z M 593.84375 273.65625 " style=" fill-rule:nonzero;fill-opacity:1;" stroke="#91DC5A" fill="#91DC5A"/>
<path d="M 548.835938 148.980469 L 610.886719 148.980469 C 610.046875 123.765625 606.65625 98.699219 600.753906 74.175781 L 548.835938 74.175781 Z M 548.835938 148.980469 " style=" fill-rule:nonzero;fill-opacity:1;" stroke="#91DC5A" fill="#91DC5A"/>
<path d="M 548.835938 0 L 548.835938 49.238281 L 593.84375 49.238281 C 589.097656 34.03125 583.390625 19.140625 576.746094 4.660156 C 567.597656 2.28125 558.261719 0.726562 548.835938 0 Z M 548.835938 0 " style=" fill-rule:nonzero;fill-opacity:1;" stroke="#91DC5A" fill="#91DC5A"/>
<path d="M 134.328125 635.222656 L 116.527344 697.5625 L 99.996094 697.5625 L 99.996094 722.503906 L 224.671875 722.503906 L 224.671875 697.5625 L 208.140625 697.5625 L 190.335938 635.222656 Z M 134.328125 635.222656 " style=" fill-rule:nonzero;fill-opacity:1;" stroke="#91DC5A" fill="#91DC5A"/>
<path d="M 324.414062 398.339844 C 324.414062 384.558594 313.25 373.402344 299.480469 373.402344 L 25.1875 373.402344 C 11.417969 373.402344 0.25 384.558594 0.25 398.339844 L 0.25 535.484375 L 324.414062 535.484375 Z M 324.414062 398.339844 " style=" fill-rule:nonzero;fill-opacity:1;" stroke="#91DC5A" fill="#91DC5A"/>
<path d="M 25.1875 610.289062 L 299.480469 610.289062 C 313.25 610.289062 324.414062 599.121094 324.414062 585.355469 L 324.414062 560.417969 L 0.25 560.417969 L 0.25 585.355469 C 0.25 599.121094 11.417969 610.289062 25.1875 610.289062 Z M 25.1875 610.289062 " style=" fill-rule:nonzero;fill-opacity:1;" stroke="#91DC5A" fill="#91DC5A"/>
<path d="M 299.480469 74.175781 L 324.414062 74.175781 L 324.414062 99.109375 L 299.480469 99.109375 Z M 299.480469 74.175781 " style=" fill-rule:nonzero;fill-opacity:1;" stroke="#91DC5A" fill="#91DC5A"/>
<path d="M 249.609375 74.175781 L 274.542969 74.175781 L 274.542969 99.109375 L 249.609375 99.109375 Z M 249.609375 74.175781 " style=" fill-rule:nonzero;fill-opacity:1;" stroke="#91DC5A" fill="#91DC5A"/>
<path d="M 199.738281 74.175781 L 224.671875 74.175781 L 224.671875 99.109375 L 199.738281 99.109375 Z M 199.738281 74.175781 " style=" fill-rule:nonzero;fill-opacity:1;" stroke="#91DC5A" fill="#91DC5A"/>
<path d="M 149.867188 74.175781 L 174.804688 74.175781 L 174.804688 99.109375 L 149.867188 99.109375 Z M 149.867188 74.175781 " style=" fill-rule:nonzero;fill-opacity:1;" stroke="#91DC5A" fill="#91DC5A"/>
<path d="M 149.867188 248.722656 L 174.804688 248.722656 L 174.804688 273.65625 L 149.867188 273.65625 Z M 149.867188 248.722656 " style=" fill-rule:nonzero;fill-opacity:1;" stroke="#91DC5A" fill="#91DC5A"/>
<path d="M 149.867188 298.597656 L 174.804688 298.597656 L 174.804688 323.527344 L 149.867188 323.527344 Z M 149.867188 298.597656 " style=" fill-rule:nonzero;fill-opacity:1;" stroke="#91DC5A" fill="#91DC5A"/>
<path d="M 374.285156 523.015625 L 399.222656 523.015625 L 399.222656 547.949219 L 374.285156 547.949219 Z M 374.285156 523.015625 " style=" fill-rule:nonzero;fill-opacity:1;" stroke="#91DC5A" fill="#91DC5A"/>
<path d="M 424.15625 523.015625 L 449.09375 523.015625 L 449.09375 547.949219 L 424.15625 547.949219 Z M 424.15625 523.015625 " style=" fill-rule:nonzero;fill-opacity:1;" stroke="#91DC5A" fill="#91DC5A"/>
<path d="M 598.707031 523.015625 L 623.644531 523.015625 L 623.644531 547.949219 L 598.707031 547.949219 Z M 598.707031 523.015625 " style=" fill-rule:nonzero;fill-opacity:1;" stroke="#91DC5A" fill="#91DC5A"/>
<path d="M 598.707031 473.144531 L 623.644531 473.144531 L 623.644531 498.078125 L 598.707031 498.078125 Z M 598.707031 473.144531 " style=" fill-rule:nonzero;fill-opacity:1;" stroke="#91DC5A" fill="#91DC5A"/>
<path d="M 598.707031 423.273438 L 623.644531 423.273438 L 623.644531 448.207031 L 598.707031 448.207031 Z M 598.707031 423.273438 " style=" fill-rule:nonzero;fill-opacity:1;" stroke="#91DC5A" fill="#91DC5A"/>
<path d="M 598.707031 373.402344 L 623.644531 373.402344 L 623.644531 398.339844 L 598.707031 398.339844 Z M 598.707031 373.402344 " style=" fill-rule:nonzero;fill-opacity:1;" stroke="#91DC5A" fill="#91DC5A"/>
<path d="M 199.738281 173.914062 C 199.738281 194.570312 182.992188 211.320312 162.335938 211.320312 C 141.679688 211.320312 124.933594 194.570312 124.933594 173.914062 C 124.933594 153.253906 141.679688 136.511719 162.335938 136.511719 C 182.992188 136.511719 199.738281 153.253906 199.738281 173.914062 Z M 199.738281 173.914062 " style=" fill-rule:nonzero;fill-opacity:1;" stroke="#91DC5A" fill="#91DC5A"/>
<path d="M 561.304688 535.484375 C 561.304688 556.136719 544.558594 572.886719 523.902344 572.886719 C 503.242188 572.886719 486.5 556.136719 486.5 535.484375 C 486.5 514.824219 503.242188 498.078125 523.902344 498.078125 C 544.558594 498.078125 561.304688 514.824219 561.304688 535.484375 Z M 561.304688 535.484375 " style=" fill-rule:nonzero;fill-opacity:1;" stroke="#91DC5A" fill="#91DC5A"/>
</g>
</svg>
