<?xml version="1.0" encoding="iso-8859-1"?>
<!-- Generator: Adobe Illustrator 16.0.0, SVG Export Plug-In . SVG Version: 6.00 Build 0)  -->
<!DOCTYPE svg PUBLIC "-//W3C//DTD SVG 1.1//EN" "http://www.w3.org/Graphics/SVG/1.1/DTD/svg11.dtd">
<svg xmlns="http://www.w3.org/2000/svg" xmlns:xlink="http://www.w3.org/1999/xlink" version="1.1" id="Capa_1" x="0px" y="0px" width="80px" height="80px" viewBox="0 0 83.817 83.817" style="enable-background:new 0 0 83.817 83.817;" xml:space="preserve">
<g>
	<g>
		<path d="M41.908,83.817c23.146,0,41.909-18.763,41.909-41.908C83.817,18.763,65.054,0,41.908,0S0,18.763,0,41.908    C0,65.055,18.762,83.817,41.908,83.817z M51.813,30.691c0-0.552,0.447-1,1-1h3.25c0.145,0,0.279,0.034,0.403,0.089h9.845    c1.654,0,3,1.346,3,3v6.375h7.297c0.553,0,1,0.448,1,1v4c0,0.552-0.447,1-1,1h-7.297v6.553c0,1.654-1.346,3-3,3h-10.25    c-0.145,0-0.279-0.034-0.404-0.089h-2.844c-0.553,0-1-0.447-1-1V30.691z M11.514,44.243v-4c0-0.552,0.448-1,1-1h7.297V32.78    c0-1.654,1.346-3,3-3h9.846c0.124-0.055,0.26-0.089,0.404-0.089h3.25c0.552,0,1,0.448,1,1v4.552h7.297c0.552,0,1,0.448,1,1v4    c0,0.552-0.448,1-1,1h-7.297v1.911h7.297c0.552,0,1,0.447,1,1v4c0,0.552-0.448,1-1,1h-7.297v4.464c0,0.552-0.448,1-1,1h-2.846    c-0.124,0.056-0.26,0.089-0.404,0.089h-10.25c-1.654,0-3-1.346-3-3v-6.464h-7.297C11.961,45.243,11.514,44.797,11.514,44.243z" fill="#D80027"/>
		<polygon points="35.312,48.155 35.312,44.155 35.312,40.243 35.312,36.243 35.312,31.691 34.062,31.691 34.062,52.618     35.312,52.618   " fill="#D80027"/>
		<rect x="13.514" y="41.243" width="6.297" height="2" fill="#D80027"/>
		<rect x="37.312" y="37.243" width="6.296" height="2" fill="#D80027"/>
		<path d="M22.812,52.707h9.25V31.78h-9.25c-0.551,0-1,0.449-1,1v7.463v4v7.464C21.812,52.26,22.259,52.707,22.812,52.707z" fill="#D80027"/>
		<rect x="69.311" y="41.155" width="6.297" height="2" fill="#D80027"/>
		<rect x="53.813" y="31.691" width="1.248" height="20.927" fill="#D80027"/>
		<path d="M67.311,51.707v-7.553v-4v-7.375c0-0.551-0.449-1-1-1h-9.248v20.927h9.248C66.862,52.707,67.311,52.26,67.311,51.707z     M65.311,46.155c0,0.552-0.447,1-1,1c-0.552,0-1-0.448-1-1V33.987c0-0.552,0.448-1,1-1c0.553,0,1,0.448,1,1V46.155z" fill="#D80027"/>
		<rect x="37.312" y="45.155" width="6.296" height="2" fill="#D80027"/>
	</g>
</g>
<g>
</g>
<g>
</g>
<g>
</g>
<g>
</g>
<g>
</g>
<g>
</g>
<g>
</g>
<g>
</g>
<g>
</g>
<g>
</g>
<g>
</g>
<g>
</g>
<g>
</g>
<g>
</g>
<g>
</g>
</svg>
