<?xml version="1.0" encoding="iso-8859-1"?>
<!-- Generator: Adobe Illustrator 16.0.0, SVG Export Plug-In . SVG Version: 6.00 Build 0)  -->
<!DOCTYPE svg PUBLIC "-//W3C//DTD SVG 1.1//EN" "http://www.w3.org/Graphics/SVG/1.1/DTD/svg11.dtd">
<svg xmlns="http://www.w3.org/2000/svg" xmlns:xlink="http://www.w3.org/1999/xlink" version="1.1" id="Capa_1" x="0px" y="0px" width="512px" height="512px" viewBox="0 0 83.818 83.818" style="enable-background:new 0 0 83.818 83.818;" xml:space="preserve">
<g>
	<g>
		<circle cx="63.931" cy="55.258" r="0.496" fill="#32c732"/>
		<path d="M55.22,33.354v23.71c0,0.152,0.125,0.277,0.277,0.277H72.36c0.152,0,0.279-0.125,0.279-0.277v-23.71    c0-0.153-0.127-0.279-0.279-0.279H55.497C55.345,33.075,55.22,33.201,55.22,33.354z M63.931,57.283    c-1.117,0-2.025-0.908-2.025-2.023c0-1.117,0.908-2.024,2.025-2.024c1.114,0,2.022,0.907,2.022,2.024    C65.953,56.375,65.045,57.283,63.931,57.283z M56.078,34.772c0-0.423,0.342-0.765,0.765-0.765h14.174    c0.422,0,0.764,0.342,0.764,0.765v17.039c0,0.422-0.342,0.765-0.764,0.765H56.843c-0.423,0-0.765-0.343-0.765-0.765V34.772z" fill="#32c732"/>
		<rect x="10.787" y="37.46" width="18.221" height="11.527" fill="#32c732"/>
		<rect x="57.606" y="35.536" width="12.645" height="15.511" fill="#32c732"/>
		<path d="M41.909,0C18.764,0,0.001,18.764,0.001,41.91c0,23.145,18.764,41.908,41.908,41.908c23.146,0,41.908-18.764,41.908-41.908    C83.817,18.764,65.056,0,41.909,0z M33.016,20.816c1.512-2.467,3.878-4.231,6.663-4.97c0.928-0.246,1.884-0.371,2.843-0.373    c0.002,0,0.004-0.002,0.007-0.002s0.008,0,0.012,0s0.009,0,0.015,0c0,0,0.002,0.002,0.004,0.002    c0.959,0.002,1.916,0.127,2.844,0.373c2.785,0.738,5.15,2.503,6.662,4.97h0.002c1.074,1.754,1.644,3.771,1.644,5.836    s-0.567,4.083-1.644,5.836c0,0-0.002,0-0.002,0.002c-1.512,2.466-3.877,4.23-6.662,4.969c-0.004,0.001-0.008,0.002-0.012,0.002    c-0.924,0.244-1.877,0.368-2.832,0.371c-0.002,0-0.004,0.002-0.004,0.002c-0.006,0-0.011-0.001-0.015-0.001    s-0.009,0.001-0.012,0.001s-0.005-0.002-0.007-0.002c-0.957-0.003-1.908-0.127-2.833-0.371c-0.003,0-0.007-0.001-0.01-0.002    c-2.785-0.738-5.151-2.503-6.663-4.969c0-0.002-0.001-0.002-0.001-0.002c-1.075-1.753-1.643-3.771-1.643-5.836    S31.94,22.57,33.016,20.816z M74.168,33.354v23.71c0,0.996-0.812,1.807-1.808,1.807H55.497c-0.996,0-1.807-0.811-1.807-1.807    V41.477H32.932v11.408c0,0.998-0.811,1.81-1.808,1.81h-5.933v2.716c0,0.818-0.794,1.461-1.809,1.461h-7.659    c-1.014,0-1.809-0.643-1.809-1.461v-2.716H8.668c-0.997,0-1.809-0.812-1.809-1.81V35.652c0-0.997,0.812-1.809,1.809-1.809h22.455    c0.997,0,1.808,0.812,1.808,1.809v4.297h20.757v-6.595c0-0.996,0.812-1.808,1.808-1.808h16.862    C73.356,31.546,74.168,32.358,74.168,33.354z" fill="#32c732"/>
		<path d="M31.125,35.371H8.67c-0.155,0-0.28,0.126-0.28,0.28v17.231c0,0.154,0.125,0.281,0.28,0.281h7.055h7.659h7.741    c0.154,0,0.279-0.127,0.279-0.281v-17.23C31.404,35.497,31.279,35.371,31.125,35.371z M30.536,49.751    c0,0.423-0.342,0.765-0.765,0.765H10.023c-0.423,0-0.765-0.342-0.765-0.765V36.696c0-0.422,0.342-0.765,0.765-0.765h19.748    c0.423,0,0.765,0.343,0.765,0.765V49.751z" fill="#32c732"/>
		<path d="M15.724,54.694c-0.133,0-0.228,0.03-0.28,0.056v0.948h8.22V54.75c-0.053-0.025-0.146-0.056-0.28-0.056H15.724z" fill="#32c732"/>
		<path d="M46.763,35.298c1.381-0.684,2.568-1.687,3.477-2.916c-0.742-0.271-1.576-0.5-2.46-0.686    C47.529,33.035,47.187,34.248,46.763,35.298z" fill="#32c732"/>
		<path d="M46.78,27.421h-3.518v2.349c1.139,0.028,2.248,0.12,3.319,0.274C46.69,29.192,46.757,28.316,46.78,27.421z" fill="#32c732"/>
		<path d="M40.233,36.007c0.522,0.129,1.06,0.216,1.61,0.255V31.19c-1.078,0.026-2.129,0.112-3.142,0.26    C39.041,33.264,39.573,34.846,40.233,36.007z" fill="#32c732"/>
		<path d="M46.583,23.259c-1.07,0.155-2.182,0.247-3.318,0.274v2.468h3.521C46.765,25.066,46.696,24.151,46.583,23.259z" fill="#32c732"/>
		<path d="M46.382,31.45c-1.007-0.146-2.049-0.232-3.117-0.26v5.069c0.543-0.041,1.073-0.131,1.588-0.259    C45.511,34.839,46.042,33.261,46.382,31.45z" fill="#32c732"/>
		<path d="M50.168,20.946c-0.885-1.169-2.026-2.128-3.347-2.792c0.398,1.013,0.72,2.177,0.957,3.453    C48.636,21.426,49.443,21.206,50.168,20.946z" fill="#32c732"/>
		<path d="M44.935,17.444c-0.541-0.142-1.099-0.237-1.672-0.281v4.952c1.069-0.027,2.112-0.115,3.117-0.261    C46.056,20.118,45.556,18.589,44.935,17.444z" fill="#32c732"/>
		<path d="M38.266,18.138c-1.329,0.663-2.481,1.626-3.372,2.801c0.729,0.264,1.546,0.486,2.411,0.668    C37.543,20.325,37.866,19.155,38.266,18.138z" fill="#32c732"/>
		<path d="M37.087,23.01c-1.093-0.224-2.094-0.51-2.989-0.858c-0.63,1.16-1.018,2.466-1.12,3.85h3.889    C36.889,24.983,36.962,23.982,37.087,23.01z" fill="#32c732"/>
		<path d="M37.087,30.293c-0.121-0.934-0.194-1.895-0.22-2.872h-3.89c0.101,1.345,0.474,2.614,1.072,3.75    C34.959,30.815,35.974,30.522,37.087,30.293z" fill="#32c732"/>
		<path d="M48.218,26.001h3.859c-0.102-1.381-0.488-2.684-1.115-3.841c-0.888,0.342-1.893,0.627-2.967,0.849    C48.121,23.981,48.194,24.982,48.218,26.001z" fill="#32c732"/>
		<path d="M41.844,23.535c-1.146-0.027-2.266-0.12-3.345-0.275c-0.112,0.892-0.181,1.807-0.202,2.742h3.547V23.535z" fill="#32c732"/>
		<path d="M41.844,17.16c-0.58,0.042-1.145,0.136-1.692,0.276c-0.623,1.146-1.124,2.677-1.449,4.418    c1.012,0.147,2.063,0.234,3.142,0.261L41.844,17.16L41.844,17.16z" fill="#32c732"/>
		<path d="M38.499,30.044c1.079-0.155,2.199-0.247,3.345-0.274v-2.349h-3.542C38.326,28.315,38.391,29.191,38.499,30.044z" fill="#32c732"/>
		<path d="M34.822,32.39c0.914,1.234,2.114,2.241,3.505,2.924c-0.429-1.053-0.773-2.271-1.022-3.617    C36.412,31.884,35.569,32.115,34.822,32.39z" fill="#32c732"/>
		<path d="M15.444,57.285c0.053,0.025,0.147,0.057,0.28,0.057h7.659c0.134,0,0.228-0.031,0.28-0.057v-0.061h-8.22L15.444,57.285    L15.444,57.285z" fill="#32c732"/>
		<path d="M47.995,30.294c1.096,0.225,2.113,0.518,3.016,0.868c0.596-1.133,0.969-2.399,1.066-3.741h-3.863    C48.188,28.4,48.115,29.361,47.995,30.294z" fill="#32c732"/>
	</g>
</g>
<g>
</g>
<g>
</g>
<g>
</g>
<g>
</g>
<g>
</g>
<g>
</g>
<g>
</g>
<g>
</g>
<g>
</g>
<g>
</g>
<g>
</g>
<g>
</g>
<g>
</g>
<g>
</g>
<g>
</g>
</svg>
