<?xml version="1.0" encoding="iso-8859-1"?>
<!-- Generator: Adobe Illustrator 16.0.0, SVG Export Plug-In . SVG Version: 6.00 Build 0)  -->
<!DOCTYPE svg PUBLIC "-//W3C//DTD SVG 1.1//EN" "http://www.w3.org/Graphics/SVG/1.1/DTD/svg11.dtd">
<svg xmlns="http://www.w3.org/2000/svg" xmlns:xlink="http://www.w3.org/1999/xlink" version="1.1" id="Capa_1" x="0px" y="0px" width="80px" height="80px" viewBox="0 0 83.818 83.818" style="enable-background:new 0 0 83.818 83.818;" xml:space="preserve">
<g>
	<g>
		<path d="M41.909,83.818c23.146,0,41.908-18.764,41.908-41.908C83.817,18.764,65.056,0,41.909,0C18.764,0,0.001,18.764,0.001,41.91    C0.001,65.055,18.765,83.818,41.909,83.818z M33.094,15.869c0-0.553,0.448-1,1-1c20.034,0,36.333,16.3,36.333,36.334    c0,0.553-0.447,1-1,1h-9.666c-0.553,0-1-0.447-1-1c0-13.601-11.065-24.666-24.667-24.666c-0.552,0-1-0.447-1-1L33.094,15.869    L33.094,15.869z M33.094,33.369c0-0.553,0.448-1,1-1c10.316,0,18.722,8.338,18.833,18.629c0.015,0.066,0.021,0.135,0.021,0.205    c0,0.553-0.448,1-1,1c-0.007,0-0.014,0-0.02,0h-6.668c-0.552,0-1-0.447-1-1c0-5.605-4.561-10.167-10.167-10.167    c-0.552,0-1-0.447-1-1V33.369z M34.094,45.203c3.309,0,6,2.691,6,6s-2.691,6-6,6s-6-2.691-6-6S30.785,45.203,34.094,45.203z" fill="#32c732"/>
		<path d="M60.742,50.203h7.671c-0.521-18.141-15.179-32.799-33.319-33.319v7.672C49.005,25.071,60.228,36.293,60.742,50.203z" fill="#32c732"/>
		<path d="M34.094,55.203c2.206,0,4-1.794,4-4s-1.794-4-4-4s-4,1.794-4,4S31.888,55.203,34.094,55.203z" fill="#32c732"/>
		<path d="M46.222,50.203h4.678c-0.5-8.487-7.317-15.305-15.804-15.805v4.679C41.007,39.559,45.737,44.29,46.222,50.203z" fill="#32c732"/>
	</g>
</g>
<g>
</g>
<g>
</g>
<g>
</g>
<g>
</g>
<g>
</g>
<g>
</g>
<g>
</g>
<g>
</g>
<g>
</g>
<g>
</g>
<g>
</g>
<g>
</g>
<g>
</g>
<g>
</g>
<g>
</g>
</svg>
